<svg width="28" height="28" viewBox="0 0 28 28" fill="none" xmlns="http://www.w3.org/2000/svg">
<g clip-path="url(#clip0_9_19)">
<path d="M27.4879 25.0196L22.0685 19.598C26.1235 14.1791 25.0179 6.49891 19.599 2.4439C14.1801 -1.6111 6.4999 -0.505436 2.4449 4.91347C-1.61011 10.3324 -0.504442 18.0125 4.91446 22.0675C9.26737 25.3249 15.246 25.3249 19.599 22.0675L25.0206 27.4892C25.7019 28.1705 26.8066 28.1705 27.4878 27.4892C28.1691 26.8078 28.1691 25.7032 27.4878 25.0219L27.4879 25.0196ZM12.3019 21.0211C7.48583 21.0211 3.58169 17.117 3.58169 12.3009C3.58169 7.48484 7.48583 3.58069 12.3019 3.58069C17.118 3.58069 21.0221 7.48484 21.0221 12.3009C21.017 17.1148 17.1158 21.016 12.3019 21.0211Z" fill="#374957" fill-opacity="0.75"/>
</g>
<defs>
<clipPath id="clip0_9_19">
<rect width="28" height="28" fill="white"/>
</clipPath>
</defs>
</svg>
