<svg width="28" height="28" viewBox="0 0 28 28" fill="none" xmlns="http://www.w3.org/2000/svg">
<g clip-path="url(#clip0_9_33)">
<path d="M13.3611 16.3552C8.3891 16.8047 4.60112 21.0059 4.66712 25.9978V26.2509C4.66712 27.2174 5.45063 28.0009 6.41712 28.0009C7.38362 28.0009 8.16712 27.2174 8.16712 26.2509V25.9278C8.11451 22.8628 10.3764 20.2491 13.4171 19.8611C16.6269 19.5428 19.487 21.8868 19.8053 25.0966C19.8241 25.2864 19.8336 25.4769 19.8338 25.6676V26.2509C19.8338 27.2174 20.6173 28.0009 21.5838 28.0009C22.5503 28.0009 23.3338 27.2174 23.3338 26.2509V25.6676C23.3281 20.5071 19.1401 16.3283 13.9796 16.334C13.7733 16.3343 13.567 16.3413 13.3611 16.3552Z" fill="#374957" fill-opacity="0.75"/>
<path d="M14.0005 14C17.8665 14 21.0005 10.866 21.0005 7C21.0005 3.13403 17.8665 0 14.0005 0C10.1345 0 7.0005 3.13403 7.0005 7C7.00433 10.8644 10.1361 13.9961 14.0005 14ZM14.0005 3.5C15.9335 3.5 17.5005 5.06702 17.5005 7C17.5005 8.93298 15.9335 10.5 14.0005 10.5C12.0675 10.5 10.5005 8.93298 10.5005 7C10.5005 5.06702 12.0675 3.5 14.0005 3.5Z" fill="#374957" fill-opacity="0.75"/>
</g>
<defs>
<clipPath id="clip0_9_33">
<rect width="28" height="28" fill="white"/>
</clipPath>
</defs>
</svg>
