<svg width="28" height="28" viewBox="0 0 28 28" fill="none" xmlns="http://www.w3.org/2000/svg">
<g clip-path="url(#clip0_9_25)">
<path d="M21.5833 1.16647H6.41665C4.71541 1.16833 3.08439 1.84496 1.88143 3.04792C0.678472 4.25088 0.00183761 5.8819 -1.52588e-05 7.58314L-1.52588e-05 20.4165C0.00183761 22.1177 0.678472 23.7487 1.88143 24.9517C3.08439 26.1547 4.71541 26.8313 6.41665 26.8331H21.5833C23.2846 26.8313 24.9156 26.1547 26.1185 24.9517C27.3215 23.7487 27.9981 22.1177 28 20.4165V7.58314C27.9981 5.8819 27.3215 4.25088 26.1185 3.04792C24.9156 1.84496 23.2846 1.16833 21.5833 1.16647V1.16647ZM21.5833 4.66647C22.2909 4.66883 22.9729 4.93078 23.5002 5.40264L15.9168 12.986C15.4018 13.4779 14.7169 13.7524 14.0047 13.7524C13.2924 13.7524 12.6076 13.4779 12.0925 12.986L4.50915 5.40264C5.03397 4.93291 5.71233 4.67111 6.41665 4.66647H21.5833ZM21.5833 23.3331H6.41665C5.6431 23.3331 4.90124 23.0259 4.35426 22.4789C3.80728 21.9319 3.49998 21.19 3.49998 20.4165V9.35297L9.61215 15.4651C10.1882 16.0414 10.8722 16.4986 11.6249 16.8105C12.3777 17.1224 13.1846 17.283 13.9994 17.283C14.8142 17.283 15.6211 17.1224 16.3739 16.8105C17.1266 16.4986 17.8106 16.0414 18.3867 15.4651L24.5 9.35297V20.4165C24.5 21.19 24.1927 21.9319 23.6457 22.4789C23.0987 23.0259 22.3569 23.3331 21.5833 23.3331Z" fill="#374957" fill-opacity="0.75"/>
</g>
<defs>
<clipPath id="clip0_9_25">
<rect width="28" height="28" fill="white"/>
</clipPath>
</defs>
</svg>
