<svg width="28" height="28" viewBox="0 0 28 28" fill="none" xmlns="http://www.w3.org/2000/svg">
<g clip-path="url(#clip0_11_48)">
<path d="M11.6669 9.33326C11.6669 8.87177 11.8038 8.42064 12.0602 8.03692C12.3165 7.65321 12.681 7.35414 13.1073 7.17754C13.5337 7.00093 14.0028 6.95472 14.4555 7.04476C14.9081 7.13479 15.3238 7.35702 15.6502 7.68334C15.9765 8.00966 16.1987 8.42542 16.2888 8.87804C16.3788 9.33067 16.3326 9.79982 16.156 10.2262C15.9794 10.6525 15.6803 11.017 15.2966 11.2734C14.9129 11.5297 14.4617 11.6666 14.0003 11.6666C13.3814 11.6666 12.7879 11.4208 12.3503 10.9832C11.9128 10.5456 11.6669 9.95209 11.6669 9.33326ZM28.0003 15.6029V21.6101C28.0068 22.4177 27.8272 23.216 27.4756 23.9432C27.124 24.6703 26.6097 25.3067 25.9726 25.8031C25.375 26.2719 24.6778 26.5972 23.9346 26.7537C23.1914 26.9103 22.4221 26.894 21.6863 26.7061C21.6349 26.6933 18.9703 25.7518 18.9703 25.7518C18.5312 25.6324 18.0676 25.6368 17.6309 25.7646L11.2143 27.7549C10.6562 27.9173 10.0781 27.9997 9.49692 27.9999C8.86275 28.0005 8.23258 27.8997 7.63025 27.7013L4.43475 26.6513C3.13821 26.2313 2.00927 25.4091 1.21184 24.3039C0.414406 23.1987 -0.00999647 21.8681 0.000250373 20.5053V15.7499C-0.00714292 14.8703 0.165749 13.9985 0.508264 13.1882C0.850779 12.378 1.35565 11.6465 1.99175 11.0389C2.75048 10.3298 3.67578 9.82337 4.68208 9.56659C4.6584 8.31014 4.88604 7.06163 5.35165 5.8944C5.81726 4.72717 6.51144 3.66476 7.39342 2.76959C8.25567 1.89245 9.28395 1.19578 10.4183 0.720228C11.5526 0.244675 12.7703 -0.000244141 14.0003 -0.000244141C15.2302 -0.000244141 16.4479 0.244675 17.5822 0.720228C18.7166 1.19578 19.7448 1.89245 20.6071 2.76959C22.3406 4.52749 23.316 6.89477 23.3243 9.36359L23.8679 9.55376C25.0899 10.0222 26.14 10.8521 26.8783 11.9326C27.6166 13.0132 28.008 14.2931 28.0003 15.6018V15.6029ZM9.88308 13.6266L13.7249 17.3833C13.7618 17.4206 13.8058 17.4503 13.8542 17.4706C13.9027 17.4909 13.9547 17.5013 14.0073 17.5013C14.0598 17.5013 14.1118 17.4909 14.1603 17.4706C14.2087 17.4503 14.2527 17.4206 14.2896 17.3833L18.1396 13.6091C19.2326 12.4873 19.8427 10.982 19.8392 9.41578C19.8358 7.84955 19.2189 6.34699 18.1209 5.23009V5.23009C17.5839 4.68297 16.9432 4.24838 16.2363 3.95171C15.5294 3.65504 14.7704 3.50224 14.0038 3.50224C13.2371 3.50224 12.4781 3.65504 11.7712 3.95171C11.0643 4.24838 10.4236 4.68297 9.88658 5.23009C8.78701 6.35063 8.17073 7.8577 8.17007 9.42762C8.16942 10.9976 8.78445 12.5051 9.88308 13.6266ZM24.5003 15.6018C24.5107 15.0142 24.3435 14.4371 24.0204 13.9462C23.6973 13.4553 23.2334 13.0735 22.6896 12.8508C22.227 14.0621 21.5178 15.1641 20.6071 16.0871L16.7408 19.8811C16.0144 20.6017 15.0327 21.006 14.0096 21.006C12.9865 21.006 12.0048 20.6017 11.2784 19.8811L7.41442 16.1081C6.53088 15.2119 5.83483 14.1485 5.36692 12.9803C5.01162 13.1105 4.68681 13.3122 4.41258 13.5729C4.11975 13.8541 3.88771 14.1924 3.73079 14.5669C3.57387 14.9413 3.4954 15.344 3.50025 15.7499V20.5041C3.4879 21.1228 3.6737 21.7293 4.03052 22.2349C4.38734 22.7406 4.89649 23.1189 5.48358 23.3146L8.72225 24.3739C9.20295 24.532 9.72016 24.5414 10.2063 24.4008L16.6358 22.4081C17.7555 22.0817 18.9459 22.0878 20.0623 22.4256L22.6138 23.3333C22.8246 23.3767 23.0423 23.3733 23.2516 23.3231C23.4609 23.2728 23.6566 23.1771 23.8248 23.0428C24.04 22.8718 24.213 22.6535 24.3301 22.4048C24.4473 22.1561 24.5055 21.8838 24.5003 21.6089V15.6018Z" fill="#374957" fill-opacity="0.75"/>
</g>
<defs>
<clipPath id="clip0_11_48">
<rect width="28" height="28" fill="white"/>
</clipPath>
</defs>
</svg>
